<svg viewBox="0 0 1024 1024" class="icon" version="1.1" xmlns="http://www.w3.org/2000/svg" fill="#000000"><g id="SVGRepo_bgCarrier" stroke-width="0"></g><g id="SVGRepo_tracerCarrier" stroke-linecap="round" stroke-linejoin="round"></g><g id="SVGRepo_iconCarrier"><path d="M461.38 391.42l102.27 0 0 564.69-102.27 0 0-564.69Z" fill="#cdab8f"></path><path d="M439.554082 164.520349l56.400501-5.520179 27.711942 283.137084-56.400501 5.520179-27.711942-283.137084Z" fill="#cdab8f"></path><path d="M267.043388 417.709201l40.071742-40.071741 211.198653 211.198653-40.071741 40.071741-211.198654-211.198653Z" fill="#cdab8f"></path><path d="M538.332201 720.053612l-40.071741-40.071742 211.198653-211.198653 40.071741 40.071741-211.198653 211.198654Z" fill="#cdab8f"></path><path d="M613.190854 216.21899l50.12459 26.43888-128.541382 243.697319-50.12459-26.43888 128.541382-243.697319Z" fill="#cdab8f"></path><path d="M697.789262 264.46526l17.881051 29.293863-142.432022 86.940877-17.88105-29.293863 142.432021-86.940877Z" fill="#cdab8f"></path><path d="M499.257871 315.129966l-24.267905 24.267905-117.994908-117.994908 24.267905-24.267905 117.994908 117.994908Z" fill="#cdab8f"></path><path d="M520.08516 701.982468l-17.16 29.721992-144.513659-83.435 17.16-29.721992 144.513659 83.435Z" fill="#cdab8f"></path><path d="M652.57 157.98m-93.37 0a93.37 93.37 0 1 0 186.74 0 93.37 93.37 0 1 0-186.74 0Z" fill="#f9f06b"></path><path d="M332.43 166.87m-93.37 0a93.37 93.37 0 1 0 186.74 0 93.37 93.37 0 1 0-186.74 0Z" fill="#f9f06b"></path><path d="M274.63 386.97m-93.37 0a93.37 93.37 0 1 0 186.74 0 93.37 93.37 0 1 0-186.74 0Z" fill="#f9f06b"></path><path d="M304.27 644.86m-93.37 0a93.37 93.37 0 1 0 186.74 0 93.37 93.37 0 1 0-186.74 0Z" fill="#f9f06b"></path><path d="M746.69 499.61m-93.37 0a93.37 93.37 0 1 0 186.74 0 93.37 93.37 0 1 0-186.74 0Z" fill="#f9f06b"></path><path d="M772.63 293.6m-93.37 0a93.37 93.37 0 1 0 186.74 0 93.37 93.37 0 1 0-186.74 0Z" fill="#f9f06b"></path></g></svg>